<?xml version="1.0" encoding="UTF-8" standalone="no"?>
<!DOCTYPE svg PUBLIC "-//W3C//DTD SVG 1.1//EN" "http://www.w3.org/Graphics/SVG/1.1/DTD/svg11.dtd">
<svg width="100%" height="100%" viewBox="0 0 200 115" version="1.1" xmlns="http://www.w3.org/2000/svg" xmlns:xlink="http://www.w3.org/1999/xlink" xml:space="preserve" xmlns:serif="http://www.serif.com/" style="fill-rule:evenodd;clip-rule:evenodd;stroke-miterlimit:10;">
    <g transform="matrix(1,0,0,1,-39,-317)">
        <g id="BACKGROUND">
        </g>
        <g id="OBJECTS">
            <g transform="matrix(1,1.22465e-16,1.22465e-16,-1,-0.2317,500)">
                <rect x="38.776" y="67.863" width="200.397" height="115.308" style="fill:rgb(253,231,86);"/>
            </g>
            <g transform="matrix(-1,-1.22465e-16,1.22465e-16,-1,198.644,326.407)">
                <path d="M0,-15.714C-4.332,-15.714 -7.856,-12.19 -7.856,-7.858C-7.856,-3.526 -4.332,0 0,0C4.332,0 7.856,-3.526 7.856,-7.858C7.856,-12.19 4.332,-15.714 0,-15.714M0,2C-5.435,2 -9.856,-2.422 -9.856,-7.858C-9.856,-13.292 -5.435,-17.714 0,-17.714C5.435,-17.714 9.856,-13.292 9.856,-7.858C9.856,-2.422 5.435,2 0,2" style="fill:rgb(53,16,85);fill-rule:nonzero;"/>
            </g>
            <g transform="matrix(-0.560955,0.827846,0.827846,0.560955,156.389,341.116)">
                <path d="M-0.777,5.207L7.283,5.207L4.295,-2.278L4.295,-2.277L-0.777,5.207Z" style="fill:white;fill-rule:nonzero;"/>
            </g>
            <g transform="matrix(0.447214,-0.894427,-0.894427,-0.447214,161.619,335.844)">
                <path d="M-3.56,8.87L-3.558,8.87L0.486,0.784L-7.506,1.843L-3.56,8.87Z" style="fill:rgb(53,16,85);fill-rule:nonzero;"/>
            </g>
            <g transform="matrix(1,1.22465e-16,1.22465e-16,-1,161.135,333.4)">
                <path d="M-9.042,6.672L0,6.672L-4.521,0L-9.042,6.672Z" style="fill:rgb(237,75,72);fill-rule:nonzero;"/>
            </g>
            <g transform="matrix(-1,-1.22465e-16,1.22465e-16,-1,161.68,411.986)">
                <path d="M0,-1.442C-0.539,-1.962 -1.279,-2.672 -2.672,-2.672C-4.064,-2.672 -4.805,-1.962 -5.345,-1.442C-5.83,-0.975 -6.068,-0.77 -6.633,-0.77C-7.195,-0.77 -7.434,-0.975 -7.919,-1.442C-8.459,-1.962 -9.199,-2.672 -10.592,-2.672C-11.984,-2.672 -12.724,-1.962 -13.264,-1.442C-13.75,-0.975 -13.988,-0.77 -14.552,-0.77C-15.116,-0.77 -15.355,-0.975 -15.841,-1.442C-16.381,-1.962 -17.121,-2.672 -18.514,-2.672C-19.906,-2.672 -20.646,-1.962 -21.187,-1.442C-21.674,-0.975 -21.912,-0.77 -22.477,-0.77C-23.041,-0.77 -23.279,-0.975 -23.766,-1.442C-24.307,-1.962 -25.047,-2.672 -26.439,-2.672C-27.832,-2.672 -28.572,-1.962 -29.113,-1.442C-29.598,-0.975 -29.836,-0.77 -30.4,-0.77C-30.965,-0.77 -31.203,-0.975 -31.688,-1.442C-32.229,-1.962 -32.969,-2.672 -34.362,-2.672C-35.756,-2.672 -36.496,-1.962 -37.036,-1.442C-37.521,-0.975 -37.761,-0.77 -38.325,-0.77C-38.728,-0.77 -38.966,-0.88 -39.243,-1.107L-39.243,1.113C-38.972,1.186 -38.669,1.23 -38.325,1.23C-36.932,1.23 -36.191,0.519 -35.651,-0.001C-35.166,-0.465 -34.927,-0.672 -34.362,-0.672C-33.798,-0.672 -33.56,-0.465 -33.074,-0.001C-32.533,0.519 -31.793,1.23 -30.4,1.23C-29.008,1.23 -28.268,0.519 -27.727,-0.001C-27.242,-0.465 -27.004,-0.672 -26.439,-0.672C-25.875,-0.672 -25.637,-0.465 -25.15,-0.001C-24.609,0.519 -23.869,1.23 -22.477,1.23C-21.084,1.23 -20.344,0.519 -19.803,-0.001C-19.316,-0.465 -19.078,-0.672 -18.514,-0.672C-17.949,-0.672 -17.711,-0.465 -17.227,-0.001C-16.686,0.519 -15.945,1.23 -14.552,1.23C-13.159,1.23 -12.419,0.519 -11.879,-0.001C-11.393,-0.465 -11.154,-0.672 -10.592,-0.672C-10.027,-0.672 -9.789,-0.465 -9.305,-0.001C-8.765,0.519 -8.025,1.23 -6.633,1.23C-5.24,1.23 -4.5,0.519 -3.959,-0.001C-3.474,-0.465 -3.235,-0.672 -2.672,-0.672C-2.108,-0.672 -1.87,-0.465 -1.385,-0.001C-0.846,0.519 -0.105,1.23 1.286,1.23L1.286,-0.77C0.723,-0.77 0.485,-0.975 0,-1.442" style="fill:white;fill-rule:nonzero;"/>
            </g>
            <g transform="matrix(-1,-1.22465e-16,1.22465e-16,-1,61.3301,414.39)">
                <path d="M0,-17.747C-0.963,-15.998 -2.169,-14.349 -3.65,-12.868C-12.129,-4.389 -25.928,-4.388 -34.409,-12.868C-35.89,-14.35 -37.095,-15.999 -38.059,-17.747L-42.521,-17.747C-41.278,-14.951 -39.527,-12.329 -37.237,-10.04C-27.198,0 -10.861,0 -0.821,-10.04C1.469,-12.33 3.225,-14.951 4.469,-17.747L0,-17.747Z" style="fill:white;fill-rule:nonzero;"/>
            </g>
            <g transform="matrix(-1,-1.22465e-16,1.22465e-16,-1,125.045,359.965)">
                <path d="M0,43.136L0,4L57.312,4L57.312,43.136L61.312,43.136L61.312,0L-4,0L-4,43.136L0,43.136Z" style="fill:rgb(237,75,72);fill-rule:nonzero;"/>
            </g>
            <g transform="matrix(-1,-1.22465e-16,1.22465e-16,-1,219.615,361.56)">
                <path d="M0,-2.31L-1.797,-2.31L-1.797,-3.754L-3.797,-3.754L-3.797,-2.31L-5.422,-2.31L-5.422,-0.224L-3.797,-0.224L-3.797,1.444L-1.797,1.444L-1.797,-0.224L0,-0.224L0,-2.31Z" style="fill:rgb(237,75,72);fill-rule:nonzero;"/>
            </g>
            <g transform="matrix(0.706945,0.707268,0.707268,-0.706945,118.018,358.062)">
                <path d="M-1.092,-2.643C-1.947,-2.643 -2.641,-1.95 -2.641,-1.094C-2.641,-0.24 -1.948,0.453 -1.092,0.453C-0.239,0.453 0.455,-0.241 0.455,-1.094C0.455,-1.949 -0.238,-2.642 -1.092,-2.643" style="fill:rgb(53,16,85);fill-rule:nonzero;"/>
            </g>
            <g transform="matrix(0.707107,0.707107,0.707107,-0.707107,113.579,353.416)">
                <path d="M-1.094,-2.643C-1.948,-2.643 -2.642,-1.95 -2.643,-1.095C-2.643,-0.24 -1.949,0.453 -1.094,0.453C-0.24,0.453 0.454,-0.241 0.454,-1.094C0.454,-1.95 -0.24,-2.643 -1.094,-2.643" style="fill:rgb(53,16,85);fill-rule:nonzero;"/>
            </g>
            <g transform="matrix(0.706945,0.707268,0.707268,-0.706945,108.944,348.726)">
                <path d="M-1.094,-2.643C-1.948,-2.643 -2.642,-1.95 -2.643,-1.095C-2.643,-0.241 -1.95,0.452 -1.094,0.452C-0.24,0.453 0.454,-0.241 0.453,-1.094C0.453,-1.95 -0.24,-2.643 -1.094,-2.643" style="fill:rgb(53,16,85);fill-rule:nonzero;"/>
            </g>
            <g transform="matrix(0.706945,0.707268,0.707268,-0.706945,104.385,344.122)">
                <path d="M-1.094,-2.642C-1.948,-2.643 -2.641,-1.95 -2.642,-1.094C-2.643,-0.241 -1.949,0.453 -1.094,0.453C-0.24,0.453 0.453,-0.24 0.454,-1.093C0.454,-1.948 -0.24,-2.642 -1.094,-2.642" style="fill:rgb(53,16,85);fill-rule:nonzero;"/>
            </g>
            <g transform="matrix(0.706945,0.707268,0.707268,-0.706945,113.578,362.701)">
                <path d="M-1.093,-2.643C-1.948,-2.644 -2.642,-1.949 -2.642,-1.095C-2.642,-0.24 -1.949,0.453 -1.093,0.454C-0.24,0.454 0.454,-0.24 0.454,-1.094C0.455,-1.949 -0.239,-2.643 -1.093,-2.643" style="fill:rgb(53,16,85);fill-rule:nonzero;"/>
            </g>
            <g transform="matrix(0.706945,0.707268,0.707268,-0.706945,108.944,358.063)">
                <path d="M-1.095,-2.644C-1.949,-2.644 -2.643,-1.95 -2.642,-1.095C-2.643,-0.24 -1.95,0.453 -1.095,0.453C-0.241,0.454 0.453,-0.24 0.453,-1.094C0.454,-1.949 -0.24,-2.643 -1.095,-2.644" style="fill:rgb(53,16,85);fill-rule:nonzero;"/>
            </g>
            <g transform="matrix(0.707268,0.706945,0.706945,-0.707268,104.385,353.415)">
                <path d="M-1.093,-2.644C-1.949,-2.644 -2.642,-1.948 -2.642,-1.095C-2.642,-0.24 -1.949,0.453 -1.093,0.453C-0.24,0.453 0.454,-0.241 0.454,-1.095C0.454,-1.95 -0.239,-2.644 -1.093,-2.644" style="fill:rgb(53,16,85);fill-rule:nonzero;"/>
            </g>
            <g transform="matrix(0.707268,0.706945,0.706945,-0.707268,99.8414,348.725)">
                <path d="M-1.095,-2.644C-1.95,-2.643 -2.644,-1.949 -2.644,-1.095C-2.643,-0.24 -1.95,0.453 -1.095,0.453C-0.24,0.453 0.453,-0.24 0.452,-1.095C0.453,-1.95 -0.241,-2.644 -1.095,-2.644" style="fill:rgb(53,16,85);fill-rule:nonzero;"/>
            </g>
            <g transform="matrix(0.707107,0.707107,0.707107,-0.707107,108.944,367.416)">
                <path d="M-1.093,-2.644C-1.948,-2.644 -2.642,-1.951 -2.642,-1.097C-2.642,-0.241 -1.949,0.453 -1.093,0.452C-0.239,0.453 0.454,-0.242 0.454,-1.096C0.454,-1.951 -0.239,-2.644 -1.093,-2.644" style="fill:rgb(53,16,85);fill-rule:nonzero;"/>
            </g>
            <g transform="matrix(0.707107,0.707107,0.707107,-0.707107,104.385,362.7)">
                <path d="M-1.094,-2.643C-1.948,-2.643 -2.642,-1.951 -2.642,-1.095C-2.643,-0.24 -1.949,0.453 -1.094,0.454C-0.24,0.454 0.454,-0.241 0.454,-1.095C0.453,-1.95 -0.24,-2.643 -1.094,-2.643" style="fill:rgb(53,16,85);fill-rule:nonzero;"/>
            </g>
            <g transform="matrix(0.706945,0.707268,0.707268,-0.706945,99.8402,358.062)">
                <path d="M-1.093,-2.643C-1.947,-2.643 -2.641,-1.951 -2.641,-1.095C-2.642,-0.24 -1.949,0.453 -1.093,0.454C-0.24,0.454 0.454,-0.24 0.454,-1.095C0.453,-1.95 -0.239,-2.643 -1.093,-2.643" style="fill:rgb(53,16,85);fill-rule:nonzero;"/>
            </g>
            <g transform="matrix(0.706945,0.707268,0.707268,-0.706945,95.1916,353.416)">
                <path d="M-1.095,-2.643C-1.949,-2.643 -2.642,-1.95 -2.643,-1.096C-2.643,-0.241 -1.95,0.454 -1.095,0.454C-0.241,0.454 0.452,-0.24 0.453,-1.095C0.453,-1.95 -0.241,-2.643 -1.095,-2.643" style="fill:rgb(53,16,85);fill-rule:nonzero;"/>
            </g>
            <g transform="matrix(0.707107,0.707107,0.707107,-0.707107,104.384,371.43)">
                <path d="M-1.092,-2.643C-1.948,-2.643 -2.642,-1.949 -2.641,-1.095C-2.641,-0.24 -1.948,0.453 -1.092,0.453C-0.24,0.453 0.454,-0.24 0.455,-1.095C0.455,-1.95 -0.238,-2.643 -1.092,-2.643" style="fill:rgb(53,16,85);fill-rule:nonzero;"/>
            </g>
            <g transform="matrix(0.706945,0.707268,0.707268,-0.706945,99.8407,367.418)">
                <path d="M-1.094,-2.642C-1.948,-2.643 -2.642,-1.949 -2.642,-1.096C-2.643,-0.241 -1.95,0.452 -1.094,0.453C-0.241,0.454 0.453,-0.24 0.453,-1.096C0.453,-1.949 -0.24,-2.642 -1.094,-2.642" style="fill:rgb(53,16,85);fill-rule:nonzero;"/>
            </g>
            <g transform="matrix(0.707107,0.707107,0.707107,-0.707107,95.1898,362.7)">
                <path d="M-1.092,-2.643C-1.947,-2.643 -2.642,-1.949 -2.641,-1.095C-2.641,-0.24 -1.948,0.453 -1.092,0.453C-0.24,0.453 0.455,-0.241 0.455,-1.095C0.455,-1.95 -0.238,-2.643 -1.092,-2.643" style="fill:rgb(53,16,85);fill-rule:nonzero;"/>
            </g>
            <g transform="matrix(0.707107,0.707107,0.707107,-0.707107,90.7088,358.062)">
                <path d="M-1.095,-2.642C-1.949,-2.642 -2.642,-1.949 -2.642,-1.095C-2.642,-0.24 -1.949,0.453 -1.095,0.453C-0.24,0.453 0.453,-0.24 0.453,-1.096C0.453,-1.949 -0.24,-2.642 -1.095,-2.642" style="fill:rgb(53,16,85);fill-rule:nonzero;"/>
            </g>
            <g transform="matrix(-1.22465e-16,1,1,1.22465e-16,57.6464,413.466)">
                <path d="M-1.559,-1.559C-2.421,-1.559 -3.12,-0.861 -3.12,0C-3.12,0.861 -2.421,1.559 -1.559,1.559C-0.698,1.559 0.001,0.861 0.001,0C0.001,-0.861 -0.698,-1.559 -1.559,-1.559" style="fill:rgb(237,75,72);fill-rule:nonzero;"/>
            </g>
            <g transform="matrix(0.707107,-0.707107,-0.707107,-0.707107,80.0205,387.679)">
                <rect x="-9.125" y="-3.78" width="7.558" height="7.561" style="fill:none;stroke:rgb(68,22,94);stroke-width:2px;"/>
            </g>
            <g transform="matrix(-1.22465e-16,1,1,1.22465e-16,118.17,420.966)">
                <path d="M-2.033,-2.033C-3.156,-2.033 -4.066,-1.123 -4.066,0C-4.066,1.123 -3.156,2.033 -2.033,2.033C-0.91,2.033 0,1.123 0,0C0,-1.123 -0.91,-2.033 -2.033,-2.033" style="fill:rgb(53,16,85);fill-rule:nonzero;"/>
            </g>
            <g transform="matrix(-1.22465e-16,1,1,1.22465e-16,142.217,386.191)">
                <path d="M-2.5,-2.5C-3.881,-2.5 -5,-1.381 -5,0C-5,1.381 -3.881,2.5 -2.5,2.5C-1.119,2.5 0,1.381 0,0C0,-1.381 -1.119,-2.5 -2.5,-2.5" style="fill:white;fill-rule:nonzero;"/>
            </g>
            <g transform="matrix(-1,-1.22465e-16,1.22465e-16,-1,48.8433,370.276)">
                <path d="M0,-2.31L-1.797,-2.31L-1.797,-3.754L-3.797,-3.754L-3.797,-2.31L-5.422,-2.31L-5.422,-0.224L-3.797,-0.224L-3.797,1.444L-1.797,1.444L-1.797,-0.224L0,-0.224L0,-2.31Z" style="fill:rgb(237,75,72);fill-rule:nonzero;"/>
            </g>
            <g transform="matrix(-1,-1.22465e-16,1.22465e-16,-1,77.7871,330.785)">
                <path d="M0,1.442C0.539,1.962 1.279,2.672 2.672,2.672C4.064,2.672 4.805,1.962 5.345,1.442C5.83,0.975 6.068,0.77 6.633,0.77C7.195,0.77 7.434,0.975 7.919,1.442C8.459,1.962 9.199,2.672 10.592,2.672C11.984,2.672 12.724,1.962 13.264,1.442C13.75,0.975 13.988,0.77 14.552,0.77C15.116,0.77 15.355,0.975 15.841,1.442C16.381,1.962 17.121,2.672 18.514,2.672C19.906,2.672 20.646,1.962 21.187,1.442C21.674,0.975 21.912,0.77 22.477,0.77C23.041,0.77 23.279,0.975 23.766,1.442C24.307,1.962 25.047,2.672 26.439,2.672C27.832,2.672 28.572,1.962 29.113,1.442C29.598,0.975 29.836,0.77 30.4,0.77C30.965,0.77 31.203,0.975 31.688,1.442C32.229,1.962 32.969,2.672 34.362,2.672C35.756,2.672 36.496,1.962 37.036,1.442C37.521,0.975 37.761,0.77 38.325,0.77C38.728,0.77 38.966,0.88 39.243,1.107L39.243,-1.113C38.972,-1.186 38.669,-1.23 38.325,-1.23C36.932,-1.23 36.191,-0.519 35.651,0.001C35.166,0.465 34.927,0.672 34.362,0.672C33.798,0.672 33.56,0.465 33.074,0.001C32.533,-0.519 31.793,-1.23 30.4,-1.23C29.008,-1.23 28.268,-0.519 27.727,0.001C27.242,0.465 27.004,0.672 26.439,0.672C25.875,0.672 25.637,0.465 25.15,0.001C24.609,-0.519 23.869,-1.23 22.477,-1.23C21.084,-1.23 20.344,-0.519 19.803,0.001C19.316,0.465 19.078,0.672 18.514,0.672C17.949,0.672 17.711,0.465 17.227,0.001C16.686,-0.519 15.945,-1.23 14.552,-1.23C13.159,-1.23 12.419,-0.519 11.879,0.001C11.393,0.465 11.154,0.672 10.592,0.672C10.027,0.672 9.789,0.465 9.305,0.001C8.765,-0.519 8.025,-1.23 6.633,-1.23C5.24,-1.23 4.5,-0.519 3.959,0.001C3.474,0.465 3.235,0.672 2.672,0.672C2.108,0.672 1.87,0.465 1.385,0.001C0.846,-0.519 0.105,-1.23 -1.286,-1.23L-1.286,0.77C-0.723,0.77 -0.485,0.975 0,1.442" style="fill:white;fill-rule:nonzero;"/>
            </g>
            <g transform="matrix(1,0,0,1,239.525,342.123)">
                <path d="M0,80.399L0,75.268C-15.683,71.313 -27.325,57.092 -27.325,40.199C-27.325,23.307 -15.683,9.086 0,5.131L0,0C-18.463,4.058 -32.324,20.536 -32.325,40.2C-32.325,59.864 -18.463,76.341 0,80.399" style="fill:rgb(160,232,208);fill-rule:nonzero;"/>
            </g>
            <g transform="matrix(0,1,1,0,185.873,387.649)">
                <ellipse cx="1.548" cy="0" rx="1.549" ry="1.548" style="fill:none;stroke:rgb(53,16,85);stroke-width:1px;"/>
            </g>
            <g transform="matrix(-0.000322893,1,1,0.000322893,185.874,381.972)">
                <ellipse cx="1.549" cy="-0.001" rx="1.549" ry="1.549" style="fill:none;stroke:rgb(53,16,85);stroke-width:1px;"/>
            </g>
            <g transform="matrix(-0.000322997,1,1,0.000322997,185.874,375.234)">
                <ellipse cx="1.548" cy="0" rx="1.548" ry="1.548" style="fill:none;stroke:rgb(53,16,85);stroke-width:1px;"/>
            </g>
            <g transform="matrix(0,1,1,0,185.872,369.094)">
                <ellipse cx="1.548" cy="0.001" rx="1.548" ry="1.548" style="fill:none;stroke:rgb(53,16,85);stroke-width:1px;"/>
            </g>
            <g transform="matrix(0,1,1,0,178.992,387.648)">
                <ellipse cx="1.549" cy="0" rx="1.549" ry="1.549" style="fill:none;stroke:rgb(53,16,85);stroke-width:1px;"/>
            </g>
            <g transform="matrix(0,1,1,0,178.994,381.972)">
                <ellipse cx="1.549" cy="-0.002" rx="1.549" ry="1.549" style="fill:none;stroke:rgb(53,16,85);stroke-width:1px;"/>
            </g>
            <g transform="matrix(0.000322789,1,1,-0.000322789,178.991,375.233)">
                <ellipse cx="1.549" cy="0.001" rx="1.548" ry="1.549" style="fill:none;stroke:rgb(53,16,85);stroke-width:1px;"/>
            </g>
            <g transform="matrix(0,1,1,0,178.991,369.094)">
                <ellipse cx="1.548" cy="0.001" rx="1.548" ry="1.549" style="fill:none;stroke:rgb(53,16,85);stroke-width:1px;"/>
            </g>
            <g transform="matrix(0,1,1,0,172.342,387.649)">
                <ellipse cx="1.548" cy="0" rx="1.549" ry="1.548" style="fill:none;stroke:rgb(53,16,85);stroke-width:1px;"/>
            </g>
            <g transform="matrix(-0.000322893,1,1,0.000322893,172.343,381.971)">
                <ellipse cx="1.549" cy="0" rx="1.549" ry="1.549" style="fill:none;stroke:rgb(53,16,85);stroke-width:1px;"/>
            </g>
            <g transform="matrix(0,1,1,0,172.342,375.234)">
                <circle cx="1.548" cy="0" r="1.549" style="fill:none;stroke:rgb(53,16,85);stroke-width:1px;"/>
            </g>
            <g transform="matrix(0,1,1,0,172.341,369.094)">
                <ellipse cx="1.548" cy="0.001" rx="1.548" ry="1.548" style="fill:none;stroke:rgb(53,16,85);stroke-width:1px;"/>
            </g>
            <g transform="matrix(0,1,1,0,165.806,387.648)">
                <circle cx="1.549" cy="0" r="1.549" style="fill:none;stroke:rgb(53,16,85);stroke-width:1px;"/>
            </g>
            <g transform="matrix(0,1,1,0,165.807,381.973)">
                <ellipse cx="1.548" cy="-0.001" rx="1.548" ry="1.548" style="fill:none;stroke:rgb(53,16,85);stroke-width:1px;"/>
            </g>
            <g transform="matrix(-0.000322997,1,1,0.000322997,165.806,375.233)">
                <ellipse cx="1.549" cy="0" rx="1.549" ry="1.548" style="fill:none;stroke:rgb(53,16,85);stroke-width:1px;"/>
            </g>
            <g transform="matrix(0,1,1,0,165.805,369.093)">
                <ellipse cx="1.549" cy="0.001" rx="1.548" ry="1.549" style="fill:none;stroke:rgb(53,16,85);stroke-width:1px;"/>
            </g>
            <g transform="matrix(-0.827846,0.560955,0.560955,0.827846,116.359,411.112)">
                <path d="M-8.634,-6.392L-0.574,-6.392L-3.562,1.093L-3.562,1.092L-8.634,-6.392Z" style="fill:rgb(253,71,86);fill-rule:nonzero;"/>
            </g>
            <g transform="matrix(0.894427,-0.447214,-0.447214,-0.894427,129.923,408.05)">
                <path d="M-2.374,-1.014L-2.372,-1.014L1.672,7.072L-6.32,6.013L-2.374,-1.014Z" style="fill:rgb(228,240,247);fill-rule:nonzero;"/>
            </g>
            <g transform="matrix(0,-1,-1,0,137.772,402.162)">
                <path d="M-7.857,1.185L1.185,1.185L-3.336,7.857L-7.857,1.185Z" style="fill:rgb(53,16,85);fill-rule:nonzero;"/>
            </g>
        </g>
        <g id="DESIGNED-BY-FREEPIK" serif:id="DESIGNED BY FREEPIK">
        </g>
    </g>
</svg>
